<?xml version="1.0" standalone="no"?>
<!DOCTYPE svg PUBLIC "-//W3C//DTD SVG 20010904//EN"
 "http://www.w3.org/TR/2001/REC-SVG-20010904/DTD/svg10.dtd">
<svg version="1.0" xmlns="http://www.w3.org/2000/svg"
 width="1130.000000pt" height="1130.000000pt" viewBox="0 0 1130.000000 1130.000000"
 preserveAspectRatio="xMidYMid meet">
<metadata>
Created by potrace 1.14, written by Peter Selinger 2001-2017
</metadata>
<g transform="translate(0.000000,1130.000000) scale(0.100000,-0.100000)"
fill="#000000" stroke="none">
<path d="M6486 11193 c-1 -1 -94 -4 -206 -7 -113 -4 -266 -8 -340 -11 -74 -3
-216 -7 -315 -10 -99 -2 -265 -7 -370 -11 -104 -3 -226 -7 -269 -8 l-79 -2
-100 -85 c-56 -46 -108 -91 -116 -99 -14 -14 -21 -14 -61 0 -25 9 -56 16 -70
15 -14 -1 -34 -3 -46 -3 -11 -1 -41 -18 -67 -38 -125 -98 -89 -274 66 -324
136 -43 268 103 222 249 -6 22 -1 27 90 101 43 36 87 71 97 79 12 10 50 15
130 17 223 5 797 23 958 29 63 3 216 7 340 11 124 3 256 7 293 8 76 3 60 13
162 -109 22 -26 48 -57 58 -68 21 -25 21 -25 1 -73 -42 -101 33 -230 147 -249
75 -13 161 30 196 98 25 50 21 140 -8 181 -57 80 -137 108 -229 81 -10 -3 -38
21 -77 68 -33 39 -71 83 -83 97 -12 14 -28 34 -36 45 -13 18 -26 20 -150 20
-75 0 -136 -1 -138 -2z m-1871 -335 c53 -50 53 -102 -2 -142 -60 -44 -120 -17
-147 68 -9 25 29 82 62 95 42 15 50 13 87 -21z m2505 -22 c34 -52 -4 -134 -66
-140 -83 -8 -136 72 -94 142 36 59 120 58 160 -2z"/>
<path d="M7657 10859 c-38 -10 -88 -55 -111 -98 -27 -51 -24 -131 5 -174 52
-74 104 -97 199 -90 42 3 56 0 69 -14 18 -21 100 -120 119 -144 11 -14 1 -26
-75 -90 -48 -41 -101 -86 -118 -101 -16 -15 -77 -66 -135 -115 -58 -48 -110
-92 -116 -98 -6 -5 -62 -53 -124 -105 -275 -231 -337 -283 -360 -304 -24 -21
-201 -171 -249 -211 -14 -11 -41 -34 -60 -50 -73 -62 -58 -68 -172 66 -57 67
-109 127 -114 133 -6 6 -62 72 -125 146 -63 74 -122 142 -130 150 -8 9 -33 38
-55 64 -22 27 -47 56 -55 65 -9 9 -49 54 -90 101 -113 129 -138 152 -154 143
-12 -7 -382 -313 -496 -410 -19 -17 -116 -99 -215 -183 -99 -84 -205 -174
-235 -200 -30 -26 -136 -116 -235 -201 -224 -191 -245 -210 -245 -222 0 -8 92
-131 110 -147 3 -3 23 -26 44 -52 l38 -47 -14 -58 c-33 -128 34 -236 153 -246
65 -6 102 8 152 57 37 35 47 53 52 91 13 81 -29 166 -98 202 -35 18 -108 24
-148 12 -24 -6 -32 -1 -80 59 -30 36 -64 77 -76 93 l-23 27 87 73 c94 79 139
118 157 134 6 6 52 44 101 85 50 42 101 85 115 97 14 12 93 78 175 148 83 70
173 146 200 170 28 23 115 97 195 164 80 68 156 132 170 144 14 12 47 40 74
62 l48 39 32 -36 c17 -19 40 -46 51 -59 80 -96 130 -155 139 -164 6 -5 28 -31
49 -57 21 -26 43 -53 50 -60 7 -7 87 -101 179 -209 92 -108 173 -203 180 -210
7 -8 37 -42 66 -76 30 -35 58 -63 62 -63 5 0 51 35 102 78 113 95 423 355 458
385 14 12 68 57 120 101 52 43 111 93 131 110 53 46 83 72 214 181 66 55 122
103 125 106 3 3 64 55 135 115 159 133 155 129 155 150 0 9 -43 70 -96 135
l-96 118 17 45 c54 142 -79 286 -228 245z m125 -120 c21 -25 25 -39 22 -68
-12 -96 -137 -113 -179 -25 -14 31 -14 37 0 67 33 70 108 82 157 26z m-3006
-2108 c70 -43 63 -130 -12 -166 -36 -17 -39 -17 -70 0 -95 51 -67 162 46 184
3 0 19 -8 36 -18z"/>
<path d="M3771 10840 c-54 -25 -88 -63 -102 -115 -22 -81 10 -164 83 -213 35
-22 50 -26 108 -25 53 1 73 -2 90 -17 21 -18 21 -18 -72 -96 -51 -44 -106 -91
-123 -105 -16 -15 -95 -81 -175 -149 -156 -131 -202 -170 -320 -270 -101 -86
-164 -138 -216 -178 -42 -33 -43 -33 -85 -19 -137 47 -262 -48 -253 -192 5
-85 84 -160 177 -166 70 -5 147 46 184 123 14 29 14 74 1 132 -2 7 26 37 62
68 63 53 124 105 220 187 26 22 58 49 71 60 63 52 155 130 164 139 6 6 37 33
70 60 33 28 67 57 76 65 9 9 27 25 40 35 13 11 40 33 60 50 19 17 62 54 94 81
77 64 155 143 155 157 0 11 -36 64 -63 91 -16 16 -16 20 -2 48 20 38 21 114 2
159 -39 91 -152 133 -246 90z m127 -89 c24 -13 47 -55 43 -81 -13 -94 -110
-124 -168 -53 -29 35 -29 73 -2 107 35 44 78 53 127 27z m-942 -1202 c70 -66
-4 -190 -94 -158 -32 11 -62 48 -65 77 -6 91 94 142 159 81z"/>
<path d="M6080 10829 c-114 -47 -161 -146 -119 -254 13 -33 62 -83 95 -95 40
-16 101 -21 127 -11 29 11 37 5 157 -130 41 -46 79 -89 85 -95 5 -6 30 -35 54
-64 25 -29 50 -58 55 -64 59 -65 58 -64 46 -86 -18 -34 -21 -117 -6 -153 42
-97 160 -147 242 -104 78 42 116 98 117 172 1 45 -5 63 -29 97 -54 77 -110
101 -196 86 -47 -9 -48 -8 -85 33 -21 23 -43 47 -48 53 -14 15 -206 235 -236
270 -13 16 -30 34 -36 41 -10 11 -10 22 2 56 9 24 15 61 13 83 -3 48 -51 123
-96 149 -37 22 -108 30 -142 16z m124 -120 c13 -12 20 -32 20 -58 0 -54 -47
-104 -91 -97 -15 2 -31 5 -34 5 -24 3 -52 45 -55 83 -9 93 88 133 160 67z
m606 -689 c21 -16 25 -27 25 -70 0 -44 -4 -55 -28 -76 -33 -28 -56 -30 -103
-8 -46 22 -64 76 -40 123 27 52 99 67 146 31z"/>
<path d="M5404 10687 c-95 -36 -142 -130 -119 -235 6 -29 -1 -36 -211 -214
-119 -100 -233 -198 -253 -216 l-36 -32 -110 5 c-411 18 -498 18 -511 0 -7 -9
-10 -24 -7 -33 5 -14 80 -110 103 -132 3 -3 25 -29 48 -57 l44 -53 -17 -44
c-31 -81 -11 -149 64 -220 26 -25 42 -30 92 -34 65 -5 93 5 141 47 58 51 78
153 44 220 -38 72 -131 116 -211 98 -39 -8 -41 -7 -75 33 -20 22 -44 54 -53
70 l-17 29 67 -4 c269 -17 423 -20 432 -8 3 4 58 51 121 103 63 52 117 97 120
100 3 3 32 28 65 55 33 28 65 55 71 60 18 16 55 47 107 89 42 35 50 37 75 27
58 -23 123 -22 172 5 69 37 95 83 95 165 0 60 -3 71 -31 106 -17 21 -44 46
-60 55 -39 22 -112 30 -150 15z m117 -98 c28 -15 45 -81 30 -118 -24 -57 -124
-72 -159 -24 -64 87 33 194 129 142z m-962 -905 c28 -20 49 -68 43 -99 -6 -35
-45 -66 -89 -72 -32 -4 -42 -1 -65 24 -15 16 -31 43 -34 61 -6 27 -1 37 29 67
39 39 78 45 116 19z"/>
<path d="M3003 10671 c-55 -34 -82 -63 -99 -107 -15 -38 -15 -98 -1 -121 8
-13 2 -20 -83 -93 -41 -36 -77 -67 -80 -70 -6 -6 -202 -176 -295 -255 -32 -27
-64 -55 -70 -61 -6 -7 -26 -67 -45 -135 -81 -305 -99 -371 -125 -477 l-27
-112 28 -38 c15 -20 59 -75 98 -120 l70 -84 -16 -41 c-8 -23 -14 -63 -13 -89
4 -89 92 -174 178 -171 9 0 27 1 40 2 34 2 99 47 126 89 37 56 35 137 -4 194
-44 63 -103 91 -182 84 l-63 -5 -84 99 c-78 91 -84 101 -75 127 8 27 82 300
135 502 30 115 33 121 86 162 24 19 53 43 64 54 12 11 30 27 40 35 52 42 200
166 204 171 3 4 41 36 84 72 l79 66 30 -16 c16 -8 51 -15 76 -15 111 -1 177
66 186 189 9 123 -158 227 -262 164z m120 -89 c45 -30 55 -50 46 -95 -20 -113
-172 -98 -184 18 -3 24 29 68 58 80 42 18 47 18 80 -3z m-537 -1627 c77 -50
33 -165 -63 -165 -17 0 -39 12 -59 31 -27 26 -31 36 -27 67 6 49 55 94 96 88
15 -2 39 -12 53 -21z"/>
<path d="M8432 10179 c-18 -4 -45 -17 -60 -30 -14 -13 -31 -29 -37 -34 -34
-31 -53 -123 -35 -170 19 -50 75 -110 115 -122 20 -6 63 -10 95 -8 l59 4 53
-62 c29 -34 55 -64 58 -67 3 -3 37 -43 75 -90 38 -47 73 -87 76 -90 32 -25
129 -156 134 -182 3 -18 15 -71 25 -118 21 -90 85 -387 94 -430 3 -14 14 -68
26 -120 11 -52 26 -120 32 -150 10 -46 24 -71 93 -155 115 -141 120 -149 106
-183 -24 -58 -18 -119 20 -175 65 -99 196 -116 278 -35 69 68 79 163 25 240
-47 67 -125 95 -207 74 -29 -7 -34 -3 -150 137 -56 68 -66 87 -76 140 -7 34
-18 89 -26 122 -14 61 -83 374 -91 410 -2 11 -18 85 -36 165 l-32 145 -95 115
c-53 63 -98 117 -101 120 -3 3 -54 63 -113 133 -104 124 -106 129 -91 151 36
56 23 152 -28 205 -55 56 -114 75 -186 60z m107 -113 c58 -53 42 -127 -35
-156 -38 -15 -78 3 -105 46 -18 29 -19 39 -10 66 10 29 36 54 71 70 21 9 51
-1 79 -26z m1028 -1891 c25 -18 47 -76 39 -103 -21 -67 -119 -89 -162 -38 -27
30 -32 90 -11 117 30 39 95 51 134 24z"/>
<path d="M7932 9850 c-132 -53 -168 -201 -74 -307 41 -48 129 -69 201 -49 11
3 41 -26 91 -86 41 -50 89 -107 106 -127 18 -20 90 -106 160 -191 71 -85 141
-168 156 -185 l28 -30 -42 -40 c-24 -22 -74 -67 -113 -100 -89 -77 -145 -135
-145 -151 0 -7 10 -25 23 -41 63 -77 222 -269 227 -273 3 -3 28 -32 56 -65 27
-33 59 -71 71 -85 46 -53 140 -167 165 -200 26 -34 26 -36 13 -87 -19 -71 -10
-114 34 -172 48 -63 135 -86 209 -56 104 44 145 147 99 248 -42 93 -122 128
-232 103 -16 -3 -46 27 -145 145 -69 82 -162 193 -207 247 -46 53 -109 128
-140 165 l-57 69 30 26 c16 15 56 50 89 77 33 28 62 52 65 55 3 3 31 27 62 54
50 42 57 52 51 74 -4 19 -286 369 -323 402 -3 3 -59 69 -124 148 l-118 142 15
39 c18 44 15 117 -7 158 -42 82 -145 124 -224 93z m92 -90 c31 -12 67 -67 62
-95 -8 -41 -19 -56 -55 -74 -61 -30 -122 3 -135 72 -6 33 30 89 64 98 36 10
36 10 64 -1z m1058 -1901 c28 -15 49 -70 39 -105 -10 -40 -67 -77 -106 -70
-37 8 -72 40 -78 74 -6 33 15 86 40 101 24 14 79 14 105 0z"/>
<path d="M3778 9743 c-87 -25 -143 -110 -131 -200 6 -50 30 -89 76 -127 36
-29 45 -31 117 -31 l79 0 51 -60 c29 -33 66 -76 82 -95 l30 -35 -32 -25 c-44
-33 -267 -214 -303 -245 -26 -22 -30 -23 -62 -9 -128 53 -269 -49 -260 -189 9
-152 212 -226 318 -115 39 40 61 142 43 203 -4 16 18 39 116 120 66 55 135
112 152 127 17 15 54 47 83 70 29 24 52 49 53 56 0 17 -26 54 -105 151 -106
129 -99 116 -82 159 57 143 -76 289 -225 245z m101 -98 c83 -42 45 -170 -50
-170 -35 0 -46 6 -69 34 -69 82 23 186 119 136z m-212 -827 c27 -22 44 -74 34
-101 -13 -34 -58 -67 -92 -67 -35 0 -88 45 -94 80 -16 80 89 140 152 88z"/>
<path d="M5686 9574 c-47 -17 -84 -46 -110 -87 -16 -25 -20 -49 -21 -108 l0
-76 -75 -64 c-41 -35 -84 -72 -94 -81 -24 -22 -29 -22 -82 -3 -92 32 -205 -25
-237 -118 -18 -55 -12 -102 21 -156 74 -121 237 -119 316 3 22 34 25 48 22
112 l-3 72 99 82 100 83 53 -13 c105 -25 186 9 231 98 53 103 -16 235 -135
259 -34 7 -58 6 -85 -3z m113 -115 c43 -42 43 -90 0 -130 -43 -41 -81 -39
-126 6 -30 30 -35 40 -29 68 3 17 20 44 36 60 41 37 80 36 119 -4z m-490 -419
c75 -75 -14 -194 -109 -145 -60 31 -69 100 -19 146 42 40 87 39 128 -1z"/>
<path d="M7466 9565 c-80 -55 -105 -98 -100 -178 7 -114 124 -197 235 -166 15
4 31 4 37 0 5 -3 60 -66 120 -139 l110 -133 -14 -36 c-22 -51 -15 -127 14
-173 43 -66 131 -100 205 -79 49 13 124 89 133 134 16 85 -21 165 -94 208 -36
21 -100 29 -142 17 -32 -9 -29 -12 -192 180 -34 41 -66 76 -70 78 -3 2 2 22
13 45 10 23 19 56 19 72 0 38 -41 124 -70 149 -63 51 -147 60 -204 21z m149
-96 c35 -36 39 -71 12 -110 -31 -47 -74 -62 -115 -42 -72 35 -77 122 -10 163
40 24 83 20 113 -11z m464 -553 c58 -31 51 -130 -12 -159 -42 -20 -82 -11
-112 25 -29 35 -32 69 -8 109 28 47 72 55 132 25z"/>
<path d="M3205 9316 c-72 -33 -122 -121 -110 -195 8 -48 47 -112 85 -136 l31
-20 -6 -95 c-3 -52 -8 -111 -10 -130 -11 -97 -9 -152 5 -164 8 -6 60 -65 114
-131 55 -66 103 -122 106 -125 3 -3 53 -61 110 -130 57 -69 107 -127 110 -130
3 -3 52 -61 110 -130 58 -69 115 -136 127 -150 17 -20 391 -462 587 -694 22
-27 46 -54 51 -60 9 -10 200 -237 257 -306 12 -14 28 -33 36 -42 13 -15 13
-22 -3 -54 -34 -72 -1 -176 72 -227 47 -34 129 -40 180 -14 42 22 103 95 105
126 3 53 -3 94 -18 128 -35 72 -144 122 -213 98 -34 -11 -35 -11 -80 44 -24
31 -47 58 -50 61 -4 3 -29 32 -56 65 -28 33 -60 71 -72 85 -11 14 -76 90 -143
170 -67 80 -134 159 -149 175 -14 17 -73 86 -130 155 -58 69 -110 130 -116
136 -5 6 -28 33 -50 59 -22 27 -44 53 -50 59 -5 6 -42 50 -82 97 -39 48 -78
93 -85 100 -7 8 -71 84 -143 169 -71 85 -134 160 -140 166 -5 6 -28 33 -50 59
-22 27 -88 105 -147 174 l-107 126 4 70 c11 157 20 245 27 249 2 1 22 10 45
20 69 30 116 116 107 193 -5 47 -49 111 -92 136 -42 25 -128 31 -167 13z m133
-97 c29 -18 39 -48 32 -90 -8 -48 -31 -70 -79 -76 -32 -4 -43 -1 -72 25 -88
79 17 205 119 141z m1708 -2603 c26 -26 32 -39 28 -62 -9 -51 -13 -59 -44 -77
-47 -28 -111 -13 -134 32 -21 41 -12 82 26 114 45 37 81 36 124 -7z"/>
<path d="M7092 9066 c-44 -35 -196 -161 -338 -281 l-258 -217 -26 29 c-14 16
-36 43 -50 59 -14 16 -49 58 -79 92 -53 62 -54 64 -42 100 28 92 20 136 -37
198 -49 54 -75 67 -135 65 -104 -2 -188 -93 -183 -198 2 -41 10 -61 37 -97 52
-69 101 -88 194 -72 39 6 41 5 77 -40 44 -54 126 -150 181 -211 29 -31 43 -40
57 -35 26 10 142 103 434 351 137 116 250 210 252 208 1 -1 19 -23 40 -48 22
-25 59 -69 84 -99 25 -29 50 -58 55 -64 6 -6 46 -54 90 -106 43 -52 83 -100
89 -106 13 -13 45 -51 253 -298 147 -174 151 -180 138 -205 -34 -67 -22 -147
31 -210 79 -92 221 -81 291 23 22 32 28 54 30 101 1 54 -2 65 -30 102 -18 23
-49 51 -71 64 -33 19 -48 21 -106 16 l-68 -6 -94 112 c-51 62 -95 114 -98 117
-3 3 -28 32 -55 65 -68 81 -79 94 -187 220 -51 61 -143 169 -203 240 -60 72
-119 141 -132 155 -13 14 -23 28 -23 32 0 24 -49 0 -118 -56z m-925 -56 c39
-14 58 -49 54 -103 -2 -27 -56 -77 -84 -77 -59 0 -109 51 -101 105 10 68 63
98 131 75z m1978 -922 c1 -2 11 -16 23 -32 32 -41 28 -80 -9 -116 -36 -34 -76
-39 -115 -14 -57 38 -61 112 -7 154 21 16 36 20 67 16 21 -3 40 -7 41 -8z"/>
<path d="M2015 8598 c-55 -45 -109 -90 -119 -100 -14 -13 -23 -15 -38 -7 -11
6 -31 13 -44 15 -13 2 -36 6 -51 9 -36 6 -101 -25 -140 -66 -50 -54 -65 -149
-31 -201 71 -108 180 -136 272 -71 59 42 85 94 82 162 -2 31 -5 61 -7 67 -4
11 184 174 199 174 4 0 39 -9 77 -20 39 -11 77 -22 85 -25 26 -7 372 -112 436
-133 65 -20 71 -26 189 -165 l57 -68 -16 -33 c-45 -96 13 -221 120 -256 106
-35 226 46 237 161 13 130 -123 237 -249 195 -22 -7 -27 -2 -181 181 -24 28
-53 53 -65 56 -13 2 -165 47 -338 100 -173 52 -328 98 -345 101 -27 6 -41 -2
-130 -76z m-187 -207 c12 -14 25 -34 28 -44 9 -29 -15 -75 -50 -97 -27 -16
-39 -18 -68 -10 -53 15 -88 78 -66 120 17 34 27 42 64 55 44 15 61 11 92 -24z
m1377 -271 c53 -56 23 -143 -55 -157 -34 -6 -78 18 -94 51 -16 34 -15 60 3 95
28 51 102 56 146 11z"/>
<path d="M5488 8550 c-43 -13 -109 -70 -126 -109 -13 -31 -17 -91 -9 -142 1
-9 -40 -52 -101 -104 -99 -84 -105 -87 -130 -75 -42 19 -119 22 -150 6 -144
-76 -160 -248 -31 -333 60 -40 143 -38 202 3 22 16 50 44 60 62 23 39 32 109
18 145 -12 30 -21 20 123 141 54 46 84 65 95 60 100 -41 196 -17 252 65 34 49
34 152 0 199 -45 64 -138 101 -203 82z m107 -112 c31 -27 40 -71 24 -110 -17
-42 -57 -58 -118 -49 -4 0 -20 13 -35 27 -80 81 42 207 129 132z m-507 -407
c11 -6 27 -26 36 -45 15 -32 15 -39 2 -71 -19 -44 -65 -67 -110 -54 -38 11
-54 27 -65 65 -23 80 62 145 137 105z"/>
<path d="M6982 8474 c-44 -18 -109 -80 -118 -112 -11 -39 -11 -82 -1 -121 8
-31 6 -36 -25 -60 -18 -14 -73 -60 -123 -101 -49 -41 -94 -78 -100 -83 -5 -4
-26 -21 -45 -38 -19 -17 -66 -56 -105 -87 -38 -31 -76 -64 -85 -72 -9 -8 -36
-31 -60 -50 -24 -19 -51 -42 -60 -50 -9 -8 -38 -33 -65 -55 -28 -22 -59 -48
-70 -58 -11 -10 -51 -44 -90 -75 -38 -31 -72 -59 -75 -62 -3 -3 -45 -39 -95
-80 -49 -41 -92 -77 -95 -80 -3 -3 -29 -25 -58 -49 -53 -44 -54 -44 -90 -31
-80 29 -159 11 -214 -47 -115 -120 -13 -327 153 -311 52 5 103 37 141 89 24
32 37 107 25 143 -11 32 -5 39 123 148 30 25 161 135 290 245 129 109 246 208
260 220 14 12 57 48 95 80 39 32 81 67 94 78 13 11 28 25 35 30 6 6 67 58 136
115 68 58 132 113 143 123 10 10 25 16 32 13 110 -42 187 -27 253 48 52 59 55
158 6 223 -50 66 -144 96 -212 67z m129 -115 c27 -25 30 -34 25 -62 -18 -93
-117 -126 -167 -56 -38 54 -26 103 34 139 35 22 69 15 108 -21z m-1497 -1262
c28 -37 32 -63 15 -101 -14 -30 -67 -57 -100 -51 -35 7 -79 59 -79 96 0 46 47
89 99 89 34 0 44 -5 65 -33z"/>
<path d="M4026 8470 c-60 -18 -120 -100 -125 -171 -3 -42 20 -104 52 -137 42
-45 148 -72 191 -50 21 11 19 14 136 -127 41 -50 80 -94 86 -100 6 -5 46 -53
90 -105 43 -52 81 -97 84 -100 3 -3 51 -59 107 -125 201 -239 287 -340 293
-345 3 -3 19 -22 34 -42 16 -21 37 -38 47 -38 10 0 48 23 86 52 57 43 366 299
453 374 14 12 104 88 200 169 96 81 184 156 196 167 19 17 23 17 57 3 67 -28
151 -12 205 38 76 71 76 195 0 263 -89 81 -174 79 -259 -6 -52 -52 -69 -105
-52 -170 l9 -34 -171 -146 c-94 -80 -193 -163 -219 -185 -27 -22 -56 -47 -66
-55 -114 -97 -241 -204 -310 -264 -14 -11 -47 -39 -73 -60 l-49 -40 -23 30
c-20 26 -462 560 -504 609 -43 51 -200 244 -224 276 -24 32 -26 40 -17 65 6
16 11 52 11 81 0 123 -122 209 -245 173z m104 -95 c16 -9 37 -29 45 -45 14
-26 14 -33 0 -68 -32 -79 -132 -85 -170 -12 -25 49 -3 111 45 129 36 13 47 13
80 -4z m2019 -242 c17 -16 31 -35 32 -43 4 -41 -4 -64 -31 -90 -24 -23 -38
-28 -67 -25 -42 4 -83 40 -85 75 -2 46 2 57 28 84 36 36 84 35 123 -1z"/>
<path d="M2500 8294 c-127 -55 -161 -218 -64 -304 55 -48 125 -67 186 -49 29
8 36 2 142 -124 l50 -59 -46 -41 c-115 -104 -302 -252 -317 -251 -9 1 -38 6
-64 12 -27 5 -64 6 -83 2 -77 -18 -144 -100 -144 -179 0 -56 13 -85 64 -135
35 -35 54 -46 91 -52 62 -9 111 7 157 51 46 44 62 92 55 164 -3 35 0 60 7 66
6 6 70 60 141 120 217 183 245 210 245 231 0 20 -25 55 -118 167 l-74 89 11
41 c23 90 13 147 -32 195 -64 68 -136 87 -207 56z m118 -93 c76 -41 42 -171
-46 -171 -44 0 -68 14 -86 49 -20 38 -11 81 23 112 31 28 68 32 109 10z m-244
-815 c80 -33 89 -127 16 -170 -66 -39 -150 21 -136 97 6 36 13 46 50 68 37 23
29 22 70 5z"/>
<path d="M7515 8071 c-131 -59 -160 -205 -62 -312 33 -37 88 -53 157 -46 l56
6 254 -304 c308 -371 307 -369 289 -391 -18 -22 -16 -122 4 -160 69 -133 235
-147 321 -27 62 88 31 219 -65 268 -33 17 -105 25 -141 14 -26 -7 -33 -2 -101
79 -39 48 -75 89 -78 92 -3 3 -30 34 -60 70 -29 36 -63 76 -76 90 -50 57 -246
297 -260 318 -12 18 -13 28 -4 50 19 45 21 91 5 135 -37 104 -148 159 -239
118z m153 -140 c26 -76 -41 -145 -119 -122 -86 26 -83 139 5 176 27 12 35 11
68 -7 20 -12 41 -33 46 -47z m779 -923 c30 -31 36 -62 18 -105 -20 -48 -71
-69 -119 -49 -41 17 -56 42 -56 91 0 81 99 120 157 63z"/>
<path d="M1927 8023 c-97 -28 -143 -102 -136 -219 2 -33 -1 -49 -13 -58 -24
-18 -129 -111 -172 -152 l-39 -38 7 -120 c12 -209 13 -214 37 -248 13 -18 26
-35 29 -38 3 -3 37 -43 74 -89 57 -72 66 -89 60 -110 -4 -15 -8 -56 -8 -93 -1
-60 2 -70 30 -105 51 -64 147 -95 212 -68 48 21 110 89 118 130 17 92 -23 177
-101 215 -39 19 -57 22 -107 16 -42 -4 -63 -2 -71 7 -7 6 -47 53 -90 104 -69
82 -78 97 -82 140 -14 165 -18 199 -21 205 -3 4 7 18 22 30 15 13 32 28 38 33
6 6 41 36 78 67 l68 57 37 -15 c55 -23 127 -20 166 8 51 36 65 52 82 91 29 71
16 138 -38 195 -58 61 -108 76 -180 55z m109 -108 c45 -29 44 -98 -3 -141 -69
-64 -185 16 -148 103 26 62 90 78 151 38z m-50 -971 c22 -11 37 -27 44 -49 35
-105 -91 -175 -160 -88 -26 33 -26 77 0 113 18 25 31 32 73 39 5 0 24 -6 43
-15z"/>
<path d="M3357 7896 c-41 -18 -98 -75 -114 -114 -37 -88 14 -197 109 -236 32
-14 107 -16 145 -5 11 4 164 -167 163 -180 -1 -3 -42 -40 -93 -83 -169 -140
-376 -315 -392 -332 -23 -22 -26 -21 -65 25 -19 23 -39 47 -44 53 -6 6 -36 41
-66 76 -30 36 -67 79 -82 95 -15 17 -28 33 -28 38 0 15 -49 6 -76 -15 -26 -20
-168 -138 -234 -194 -14 -12 -47 -41 -75 -64 -193 -162 -275 -239 -275 -257 0
-7 43 -68 96 -133 91 -114 96 -122 85 -148 -41 -100 3 -208 103 -253 56 -24
116 -17 172 22 98 67 109 184 26 275 -49 54 -87 68 -160 60 -51 -6 -59 -4 -76
16 -11 13 -46 54 -79 92 l-59 70 38 33 c22 19 56 49 78 66 21 18 43 37 50 43
6 5 70 59 141 119 72 60 144 122 160 137 17 15 33 28 36 28 4 0 36 -33 70 -72
35 -40 83 -93 105 -118 23 -25 56 -62 74 -82 18 -21 40 -38 49 -38 20 0 159
110 411 324 173 147 220 192 220 211 0 6 -44 66 -99 132 -94 115 -98 121 -85
145 20 37 25 97 13 142 -25 92 -158 159 -242 122z m129 -122 c28 -30 31 -39
24 -68 -10 -47 -18 -56 -56 -72 -48 -20 -99 2 -119 51 -14 31 -14 39 -1 70 17
39 66 68 101 59 11 -3 34 -21 51 -40z m-847 -1356 c53 -33 47 -124 -10 -153
-58 -31 -111 -15 -134 41 -36 87 62 164 144 112z"/>
<path d="M9765 7863 c-58 -14 -122 -96 -128 -165 -4 -45 18 -107 51 -141 30
-32 76 -59 85 -50 12 12 26 -47 32 -134 3 -48 8 -99 10 -113 3 -14 7 -63 11
-110 7 -100 10 -142 19 -230 14 -151 23 -257 30 -345 2 -38 7 -90 9 -115 3
-25 7 -74 10 -110 12 -141 18 -216 21 -248 2 -28 -5 -40 -50 -86 -44 -44 -55
-62 -60 -99 -13 -84 21 -163 87 -201 67 -40 180 -25 230 31 50 55 62 153 27
218 -24 44 -35 54 -96 86 -38 20 -43 26 -44 58 0 20 -2 45 -4 56 -3 11 -7 58
-10 105 -3 47 -7 95 -9 105 -2 11 -7 58 -10 105 -4 47 -9 101 -11 120 -2 19
-7 69 -10 110 -4 41 -8 98 -10 125 -3 28 -7 79 -10 115 -10 115 -16 184 -20
210 -2 14 -6 57 -10 95 -7 81 -12 132 -20 195 -6 45 -6 46 38 78 96 69 114
202 39 285 -41 46 -125 67 -197 50z m125 -119 c43 -50 34 -111 -21 -139 -43
-23 -77 -18 -110 14 -44 44 -36 126 15 148 47 21 83 14 116 -23z m143 -1785
c29 -13 47 -48 47 -89 0 -32 -51 -90 -79 -90 -39 0 -82 23 -97 52 -43 84 41
167 129 127z"/>
<path d="M7052 7830 c-76 -34 -114 -89 -116 -165 -1 -66 28 -121 83 -160 37
-26 52 -30 108 -30 l65 -1 62 -86 c33 -48 82 -118 108 -155 54 -78 76 -110
337 -482 106 -150 189 -277 184 -281 -4 -4 -98 -72 -208 -150 -295 -211 -309
-223 -282 -252 6 -7 26 -33 42 -58 45 -66 379 -549 645 -930 129 -184 247
-354 262 -377 l29 -42 -19 -56 c-22 -65 -22 -97 3 -148 24 -51 59 -83 108
-100 133 -44 268 72 243 208 -8 43 -63 115 -101 134 -17 8 -57 16 -90 17 -57
2 -61 4 -88 41 -46 61 -761 1082 -772 1101 -5 9 -13 19 -16 22 -3 3 -35 48
-72 102 l-67 96 167 118 c93 65 201 141 242 171 41 29 78 54 83 55 4 2 9 15
10 29 1 18 -41 86 -157 253 -88 125 -167 237 -175 249 -48 71 -254 366 -270
387 -10 14 -44 62 -76 108 l-57 83 19 42 c11 23 19 64 19 93 0 128 -137 216
-253 164z m133 -107 c14 -14 26 -31 26 -37 1 -6 2 -18 3 -26 2 -23 -22 -68
-43 -80 -77 -41 -163 23 -140 103 11 40 26 56 63 65 40 11 60 5 91 -25z m1393
-3114 c50 -31 49 -119 -2 -154 -41 -30 -115 -12 -135 32 -43 94 50 176 137
122z"/>
<path d="M8392 7749 c-79 -17 -152 -114 -146 -193 10 -115 104 -187 226 -173
45 6 48 5 81 -36 19 -23 48 -56 65 -73 34 -36 5 -33 409 -38 122 -1 224 -4
226 -7 2 -2 15 -25 30 -51 36 -63 114 -103 183 -94 102 12 165 90 160 197 -3
66 -31 112 -91 149 -82 51 -206 17 -252 -67 -12 -23 -25 -33 -43 -34 -14 0
-142 0 -285 0 l-260 2 -28 32 c-73 85 -79 95 -67 117 16 29 20 116 8 151 -28
81 -131 137 -216 118z m102 -114 c44 -44 46 -89 5 -136 -31 -36 -102 -34 -135
4 -32 38 -32 86 2 126 34 41 91 43 128 6z m1011 -297 c15 -14 28 -38 31 -59 5
-31 1 -41 -26 -73 -29 -32 -37 -36 -67 -31 -68 10 -93 37 -93 98 0 73 98 114
155 65z"/>
<path d="M6560 7478 c-14 -13 -43 -38 -65 -57 -22 -18 -65 -55 -95 -81 -30
-26 -122 -105 -205 -175 -82 -71 -168 -144 -190 -164 -22 -20 -69 -61 -105
-91 -111 -95 -122 -108 -111 -128 8 -15 439 -537 515 -623 17 -19 45 -52 61
-73 17 -21 35 -43 40 -50 6 -6 70 -82 143 -168 l131 -157 -14 -35 c-54 -129
51 -273 189 -260 58 6 124 52 153 107 55 107 -35 255 -159 261 -29 2 -63 -1
-75 -5 -22 -8 -25 -6 -98 82 -64 77 -241 286 -250 295 -5 6 -28 33 -50 60 -36
44 -93 110 -120 140 -5 6 -26 30 -45 54 -19 24 -39 48 -45 54 -5 6 -33 38 -60
71 -28 33 -88 103 -133 156 l-82 97 87 73 c48 41 99 84 113 96 14 12 122 103
240 203 118 100 227 192 242 205 l27 24 33 -38 c18 -21 51 -60 73 -87 56 -67
113 -134 139 -164 12 -14 69 -81 126 -150 58 -69 107 -127 110 -130 19 -18
120 -142 120 -148 0 -4 -7 -26 -15 -49 -42 -122 45 -242 179 -245 118 -2 211
126 175 242 -30 95 -152 155 -243 120 -14 -5 -26 -6 -26 -2 0 4 -15 23 -33 42
-18 19 -80 91 -137 160 -58 68 -115 136 -127 150 -11 14 -67 79 -123 145 -170
200 -231 265 -248 265 -10 0 -28 -10 -42 -22z m866 -852 c29 -29 34 -40 29
-68 -7 -45 -55 -88 -99 -88 -33 0 -84 38 -87 64 -1 6 -2 18 -3 26 -2 23 22 67
46 84 37 26 76 20 114 -18z m-516 -968 c38 -46 13 -126 -47 -149 -33 -12 -83
12 -106 50 -21 37 -21 55 0 92 31 52 113 56 153 7z"/>
<path d="M1311 7174 c-60 -26 -109 -102 -105 -165 1 -19 2 -41 3 -51 1 -9 19
-39 40 -66 44 -55 83 -74 156 -74 l45 0 75 -110 76 -110 -21 -36 c-12 -19 -24
-56 -27 -81 -14 -123 123 -242 232 -201 137 51 182 185 99 296 -31 42 -88 68
-153 69 l-55 2 -71 112 -72 112 20 41 c66 134 -20 279 -165 278 -24 -1 -58 -7
-77 -16z m130 -86 c54 -45 57 -108 8 -152 -26 -23 -38 -27 -67 -23 -85 14
-115 101 -55 162 29 28 88 34 114 13z m332 -542 c28 -7 68 -58 62 -80 -2 -6
-6 -23 -9 -37 -8 -37 -77 -72 -115 -58 -82 32 -92 115 -19 166 17 12 36 20 42
18 6 -2 24 -6 39 -9z"/>
<path d="M9083 7017 c-17 -10 -200 -158 -237 -192 -6 -5 -38 -32 -71 -60 -77
-64 -240 -203 -281 -240 -7 -5 -34 -28 -60 -50 -26 -22 -72 -63 -101 -91 -56
-54 -59 -65 -22 -109 9 -11 98 -118 197 -238 l180 -218 -15 -30 c-19 -38 -19
-109 1 -145 69 -132 208 -155 308 -52 87 89 56 228 -66 294 -22 12 -46 15 -93
11 l-63 -5 -52 61 c-105 119 -307 362 -308 369 0 3 95 86 212 185 380 320 433
365 462 390 23 21 30 23 40 12 7 -8 37 -43 67 -79 29 -36 56 -67 59 -70 3 -3
31 -35 62 -72 l57 -68 -16 -37 c-23 -57 -14 -142 21 -188 102 -134 318 -73
334 95 12 124 -106 225 -233 197 -37 -8 -42 -6 -69 25 -82 93 -105 120 -151
174 -76 90 -127 144 -134 144 -3 -1 -16 -6 -28 -13z m471 -427 c33 -12 60 -64
52 -102 -22 -112 -186 -92 -186 22 0 21 9 41 29 61 31 30 61 36 105 19z m-670
-790 c34 -12 58 -61 51 -102 -9 -50 -37 -73 -91 -73 -38 0 -50 5 -70 28 -42
50 -25 122 36 146 33 13 44 13 74 1z"/>
<path d="M3694 6987 c-76 -52 -103 -120 -83 -205 8 -33 6 -39 -19 -61 -15 -13
-41 -35 -57 -50 -17 -14 -50 -42 -75 -62 -45 -36 -45 -36 -85 -22 -61 22 -127
18 -169 -11 -113 -75 -129 -205 -36 -295 134 -127 351 0 310 182 -9 43 -8 44
70 108 25 20 63 52 84 72 40 35 40 35 80 20 115 -41 225 9 257 116 35 117 -61
241 -185 241 -33 0 -55 -8 -92 -33z m151 -82 c18 -13 36 -36 39 -50 14 -57
-51 -128 -109 -118 -28 6 -72 50 -76 78 -6 38 12 76 44 95 42 26 63 25 102 -5z
m-502 -407 c33 -17 46 -39 47 -79 0 -66 -69 -114 -129 -89 -34 14 -66 71 -57
103 17 63 85 94 139 65z"/>
<path d="M2710 6873 c-118 -59 -137 -201 -39 -301 31 -32 102 -55 151 -48 26
3 37 -11 190 -253 439 -694 728 -1152 728 -1154 0 -1 -114 -74 -254 -162 -212
-133 -256 -165 -261 -188 -7 -27 5 -47 276 -472 21 -33 121 -190 222 -350
l184 -290 -18 -30 c-47 -79 -37 -173 24 -236 109 -112 302 -42 315 114 9 118
-78 208 -195 203 l-49 -3 -54 86 c-98 156 -572 904 -586 927 -14 21 -11 24 83
85 54 35 152 98 218 141 66 43 129 84 140 91 10 6 32 24 47 39 l29 27 -79 128
c-43 70 -145 234 -227 363 -81 129 -234 372 -338 540 -105 168 -195 307 -199
308 -4 2 -8 8 -8 13 0 5 -16 33 -35 62 -19 28 -35 56 -35 61 0 5 10 29 21 54
28 58 21 130 -18 186 -57 81 -144 103 -233 59z m156 -104 c11 -12 18 -36 18
-60 0 -63 -43 -97 -115 -90 -9 0 -28 12 -43 26 -48 44 -29 131 34 151 40 13
79 3 106 -27z m1230 -3171 c26 -12 44 -48 44 -87 0 -31 -42 -80 -69 -82 -45
-3 -68 5 -93 32 -47 50 -30 116 35 144 31 13 44 12 83 -7z"/>
<path d="M4283 6832 c-71 -46 -96 -117 -81 -228 2 -16 -22 -42 -97 -106 l-101
-86 -34 14 c-122 52 -253 -23 -267 -153 -8 -74 29 -137 107 -184 35 -21 112
-24 148 -5 97 50 139 146 108 244 -5 15 14 36 94 103 56 46 107 82 113 81 117
-33 163 -30 222 14 64 48 94 158 61 221 -39 74 -95 110 -176 111 -44 1 -64 -5
-97 -26z m160 -88 c35 -35 43 -76 21 -113 -23 -40 -55 -55 -96 -47 -50 9 -78
39 -78 84 0 85 96 133 153 76z m-489 -420 c14 -15 26 -29 27 -33 5 -40 3 -56
-13 -81 -37 -62 -114 -62 -155 -1 -28 41 -24 74 13 113 37 38 90 39 128 2z"/>
<path d="M5499 6483 c-36 -5 -108 -69 -125 -110 -17 -40 -17 -97 0 -145 13
-36 13 -38 -24 -80 -117 -134 -140 -162 -140 -170 0 -23 27 -52 137 -149 65
-57 120 -106 123 -109 3 -3 46 -41 95 -84 50 -43 104 -91 120 -106 17 -15 68
-59 114 -99 46 -40 89 -77 96 -84 6 -7 38 -34 70 -62 32 -27 63 -55 69 -60 6
-6 81 -71 166 -145 85 -74 175 -153 200 -176 25 -22 83 -75 130 -116 59 -53
84 -81 82 -94 -18 -104 12 -177 94 -230 62 -41 186 -16 233 46 52 71 50 174
-4 238 -50 60 -156 83 -223 50 -32 -16 -34 -15 -112 55 -19 18 -66 59 -105 92
-38 33 -76 67 -85 75 -9 8 -32 28 -51 44 -46 40 -183 160 -189 166 -3 3 -57
50 -120 105 -63 54 -117 102 -120 105 -3 3 -59 53 -125 110 -108 94 -166 145
-199 175 -6 6 -47 42 -90 80 -44 39 -103 93 -133 120 l-53 50 26 30 c14 17 43
51 65 77 39 44 42 46 76 36 77 -21 157 14 211 92 26 39 30 125 8 168 -16 31
-61 74 -94 91 -25 13 -83 19 -123 14z m89 -98 c25 -7 52 -52 52 -85 0 -33 -30
-78 -60 -90 -37 -15 -75 -3 -106 33 -21 25 -25 38 -20 65 6 38 30 70 61 82 20
8 28 8 73 -5z m1258 -1683 c48 -39 54 -95 14 -137 -28 -29 -67 -37 -107 -20
-37 16 -53 41 -53 88 0 71 91 114 146 69z"/>
<path d="M6676 6449 c-54 -26 -76 -47 -97 -93 -40 -89 9 -208 101 -247 34 -15
98 -19 125 -9 26 10 40 -3 154 -145 90 -111 112 -137 247 -301 60 -72 155
-188 212 -257 57 -69 111 -134 120 -145 9 -11 31 -37 47 -58 25 -32 99 -122
152 -185 11 -13 11 -23 -2 -60 -63 -178 134 -326 288 -217 40 29 68 89 68 153
2 101 -79 179 -186 179 -27 0 -59 -3 -70 -7 -16 -5 -34 11 -95 90 -41 52 -122
153 -180 223 -58 70 -121 146 -140 170 -19 24 -47 58 -61 75 -51 60 -306 372
-378 463 -68 86 -72 94 -62 120 42 105 5 204 -92 250 -53 25 -101 25 -151 1z
m151 -117 c43 -65 -2 -144 -83 -144 -37 0 -78 33 -87 71 -9 37 18 90 54 105
45 19 89 7 116 -32z m1136 -1379 c29 -21 47 -70 37 -99 -10 -24 -50 -62 -70
-64 -40 -6 -65 3 -92 32 -25 27 -29 37 -23 67 15 79 87 111 148 64z"/>
<path d="M8904 6461 c-42 -10 -110 -66 -127 -105 -8 -17 -15 -50 -16 -74 -5
-113 112 -211 222 -185 33 7 46 6 55 -3 18 -20 160 -189 332 -394 85 -102 157
-187 160 -190 3 -3 25 -30 50 -60 25 -30 47 -57 50 -60 3 -3 25 -29 48 -59 28
-36 40 -60 36 -70 -22 -51 -27 -103 -14 -139 18 -50 57 -100 93 -119 41 -21
119 -25 159 -8 83 35 133 135 108 218 -29 97 -83 136 -190 134 -80 -1 -75 -4
-169 109 -13 16 -38 45 -55 64 -17 20 -49 57 -71 84 -22 27 -45 54 -50 60 -6
6 -42 49 -80 96 -38 47 -72 87 -76 90 -3 3 -65 76 -137 164 -130 158 -131 159
-114 183 23 36 20 123 -6 165 -32 51 -73 85 -117 97 -44 12 -47 12 -91 2z
m111 -118 c34 -35 34 -88 0 -126 -14 -15 -30 -28 -35 -28 -63 -8 -103 13 -120
66 -18 53 14 99 80 118 24 6 48 -3 75 -30z m924 -1102 c65 -57 35 -153 -52
-168 -31 -5 -40 -1 -67 25 -62 62 -25 162 60 162 22 0 46 -8 59 -19z"/>
<path d="M4523 6406 c-73 -37 -104 -85 -105 -158 -1 -123 100 -210 223 -194
47 6 47 6 90 -46 49 -59 69 -83 96 -114 10 -12 54 -66 98 -119 44 -54 127
-156 185 -225 58 -70 117 -143 132 -161 14 -19 36 -45 48 -59 42 -49 56 -66
120 -145 35 -44 67 -82 70 -85 3 -3 31 -37 63 -77 l58 -72 -15 -46 c-9 -25
-16 -58 -16 -73 0 -46 41 -114 88 -147 39 -27 51 -30 109 -28 56 1 70 6 101
30 62 51 91 135 70 209 -12 44 -79 110 -120 120 -40 9 -99 11 -113 5 -27 -14
-43 -6 -75 37 -37 49 -185 230 -516 633 -110 134 -235 287 -277 340 l-77 96
15 44 c38 107 -16 213 -125 247 -46 14 -83 11 -127 -12z m153 -107 c22 -24 24
-90 4 -115 -8 -9 -30 -23 -47 -31 -28 -11 -38 -11 -67 1 -40 17 -56 42 -56 89
0 84 108 121 166 56z m1149 -1399 c34 -35 37 -75 9 -113 -30 -41 -64 -51 -108
-33 -51 21 -72 71 -52 120 17 41 39 55 87 56 26 0 42 -7 64 -30z"/>
<path d="M2164 6359 c-88 -71 -124 -91 -139 -79 -7 6 -38 14 -67 16 -103 10
-196 -69 -203 -173 -8 -124 119 -227 236 -189 40 12 100 61 119 95 17 32 23
107 12 139 -9 27 -7 31 43 70 l52 41 41 -47 c22 -26 49 -56 59 -67 10 -11 68
-78 128 -150 60 -71 114 -135 120 -141 5 -6 53 -62 105 -124 52 -62 128 -151
168 -197 39 -46 72 -87 72 -91 0 -4 -7 -28 -14 -53 -28 -92 10 -183 95 -227
109 -57 248 16 265 141 8 60 -9 106 -56 155 -50 51 -99 64 -186 49 -30 -5 -36
1 -108 87 -42 51 -86 104 -98 118 -13 13 -40 45 -61 71 -21 26 -43 52 -50 59
-7 7 -34 40 -62 73 -27 33 -55 66 -62 73 -7 7 -29 34 -50 60 -21 26 -42 52
-48 58 -5 6 -30 35 -55 64 -25 30 -63 75 -85 100 -22 25 -50 58 -61 73 -29 36
-62 35 -110 -4z m-193 -158 c23 -3 67 -64 63 -88 -1 -7 -2 -21 -3 -31 -2 -26
-59 -65 -94 -64 -44 1 -90 50 -90 96 0 56 48 98 103 90 8 -1 18 -3 21 -3z
m1156 -782 c93 -57 1 -205 -96 -155 -71 37 -71 133 1 170 24 13 60 7 95 -15z"/>
<path d="M1327 6279 c-108 -30 -161 -162 -108 -266 31 -62 77 -88 176 -101 3
0 18 3 34 8 33 9 43 1 151 -129 25 -30 57 -68 71 -85 92 -107 164 -192 229
-271 41 -49 77 -92 80 -95 3 -3 24 -27 45 -55 22 -27 42 -52 46 -55 3 -3 28
-33 57 -68 51 -62 52 -64 37 -92 -21 -40 -19 -113 4 -158 64 -124 208 -146
303 -45 50 53 65 141 34 201 -43 83 -172 136 -235 98 -13 -9 -11 -11 -136 139
-55 66 -102 122 -105 125 -5 4 -160 189 -231 275 -10 11 -49 58 -88 105 -39
47 -75 90 -79 95 -4 6 -22 27 -39 48 -32 37 -33 38 -18 74 25 60 19 114 -17
169 -18 27 -47 56 -64 66 -36 21 -105 29 -147 17z m120 -113 c70 -68 -5 -186
-98 -154 -44 15 -70 72 -55 118 21 65 103 85 153 36z m938 -1121 c33 -42 32
-77 -3 -116 -20 -23 -37 -31 -63 -32 -104 -3 -135 127 -41 174 42 22 78 13
107 -26z"/>
<path d="M3490 6130 c-93 -48 -135 -134 -108 -223 14 -48 63 -102 108 -120 19
-8 61 -15 93 -15 33 0 62 -4 67 -8 4 -5 46 -61 92 -124 272 -369 749 -1014
789 -1065 l46 -60 -18 -40 c-26 -55 -22 -130 8 -178 76 -120 231 -122 311 -3
87 131 -13 291 -176 282 l-57 -4 -120 162 c-107 145 -661 896 -703 954 -9 13
-38 52 -63 86 l-46 61 19 45 c26 59 20 126 -16 180 -48 73 -156 106 -226 70z
m127 -95 c44 -31 49 -103 9 -143 -39 -39 -93 -33 -144 15 -17 16 -21 62 -9 88
24 51 98 72 144 40z m1148 -1557 c31 -14 55 -55 55 -93 0 -40 -50 -85 -95 -85
-27 0 -44 8 -66 29 -46 47 -34 116 25 145 38 19 48 19 81 4z"/>
<path d="M5943 6139 c-184 -33 -216 -269 -49 -356 22 -12 47 -14 97 -10 l67 6
68 -82 c38 -45 74 -87 80 -93 5 -6 30 -35 55 -64 24 -29 75 -89 113 -134 90
-106 133 -157 251 -296 53 -63 122 -144 153 -179 32 -35 59 -66 62 -70 3 -3
13 -12 22 -19 22 -18 32 -12 163 97 60 50 112 91 115 91 4 0 22 -19 40 -42 19
-24 44 -54 56 -68 19 -21 184 -217 367 -434 23 -28 81 -96 130 -152 48 -56 87
-106 87 -111 0 -4 -19 -25 -42 -44 -194 -165 -260 -223 -273 -242 -18 -26 -15
-31 102 -174 l84 -102 -16 -32 c-22 -42 -21 -122 3 -167 43 -83 170 -124 246
-80 117 69 142 210 52 297 -53 52 -104 63 -206 48 -12 -2 -96 85 -158 164 -11
14 -1 26 75 90 49 40 97 82 108 92 57 53 92 76 102 66 7 -7 6 -20 -4 -41 -25
-49 -13 -139 24 -185 43 -54 84 -75 147 -76 44 -1 61 4 95 27 69 48 86 80 86
161 0 61 -3 75 -28 107 -15 20 -49 46 -75 58 -39 19 -57 21 -109 16 -83 -9
-81 3 9 77 68 56 72 57 88 40 10 -10 71 -81 136 -158 93 -109 124 -139 141
-137 17 3 91 58 203 155 14 12 52 44 85 72 33 27 74 62 90 76 101 88 194 168
218 189 31 27 35 58 10 86 -10 10 -53 62 -95 114 l-77 96 15 44 c37 107 -23
218 -137 250 -39 11 -120 -8 -155 -38 -152 -129 -25 -372 172 -327 27 6 34 2
65 -36 18 -23 47 -56 62 -73 16 -17 35 -41 43 -53 17 -24 15 -26 -86 -109 -19
-16 -37 -31 -40 -34 -3 -3 -77 -66 -165 -139 -88 -74 -168 -141 -178 -150 -21
-17 -13 -24 -157 139 -141 160 -146 165 -172 153 -13 -6 -63 -43 -110 -82 -48
-39 -90 -71 -95 -71 -4 1 -28 26 -53 56 -25 31 -52 63 -60 72 -57 66 -90 104
-125 146 -22 27 -47 56 -56 65 -8 9 -37 43 -65 76 -27 33 -51 62 -54 65 -3 3
-73 84 -155 180 -82 96 -156 180 -165 187 -15 12 -36 5 -62 -20 -7 -7 -44 -37
-83 -67 -38 -30 -81 -65 -95 -77 -14 -13 -29 -23 -35 -23 -5 0 -35 30 -65 67
-30 36 -59 71 -65 77 -5 6 -44 51 -85 101 -79 95 -118 141 -135 159 -6 6 -56
65 -110 131 -55 66 -105 125 -111 130 -6 6 -33 37 -60 70 -81 98 -89 107 -99
119 -34 38 -34 41 -20 91 25 80 -1 159 -68 209 -45 33 -85 44 -134 35z m93
-116 c23 -28 34 -61 28 -80 -19 -60 -32 -71 -91 -80 -24 -3 -38 2 -63 24 -53
48 -41 126 25 154 29 13 85 3 101 -18z m2708 -1028 c42 -39 40 -98 -5 -139
-27 -23 -38 -27 -68 -22 -50 8 -90 53 -85 97 9 78 102 116 158 64z m-617 -910
c31 -31 35 -40 30 -72 -8 -48 -35 -73 -85 -80 -36 -5 -45 -2 -72 25 -46 46
-36 116 21 148 40 22 69 16 106 -21z m-203 -490 c23 -36 19 -71 -12 -106 -40
-45 -94 -45 -133 -1 -57 63 -25 143 61 154 30 4 63 -14 84 -47z"/>
<path d="M8134 6100 c-17 -6 -50 -28 -72 -49 -81 -78 -77 -187 8 -271 41 -40
126 -56 186 -37 16 6 29 -2 60 -40 21 -26 129 -153 238 -282 109 -130 215
-256 235 -279 20 -24 41 -49 46 -55 6 -7 48 -56 94 -109 46 -54 89 -99 95 -99
27 -3 45 6 116 60 72 55 76 57 105 45 37 -16 104 -18 142 -3 91 34 149 162
110 244 -20 42 -91 105 -127 112 -77 15 -118 3 -178 -51 -47 -42 -68 -120 -49
-187 6 -23 0 -32 -42 -68 l-50 -41 -48 51 c-54 58 -55 59 -103 115 -39 45 -73
85 -250 294 -67 80 -142 168 -165 196 -24 28 -64 75 -89 105 l-44 54 16 61
c13 50 14 69 4 100 -14 47 -56 100 -95 120 -37 19 -103 26 -143 14z m104 -99
c13 -7 30 -28 38 -47 12 -29 12 -39 0 -68 -50 -119 -212 -42 -166 78 17 47 78
64 128 37z m1146 -780 c33 -35 40 -74 21 -112 -43 -83 -175 -44 -175 52 0 30
6 42 33 63 44 35 86 34 121 -3z"/>
<path d="M4393 5850 c-61 -14 -124 -69 -143 -125 -25 -76 7 -163 79 -214 34
-25 116 -36 152 -22 29 11 34 6 190 -180 74 -88 112 -132 244 -289 54 -63 141
-167 194 -230 53 -63 105 -124 116 -136 42 -45 147 -175 144 -178 -2 -1 -94
-79 -204 -172 -110 -93 -208 -176 -219 -184 -10 -8 -24 -20 -31 -27 -7 -7 -57
-49 -111 -94 -55 -45 -101 -84 -104 -88 -29 -35 -36 -32 -106 52 -38 45 -73
87 -79 93 -5 6 -29 33 -51 60 -23 27 -106 126 -185 219 -241 284 -222 256
-204 298 41 98 -13 215 -112 248 -154 50 -301 -113 -229 -253 33 -66 85 -101
155 -106 32 -2 67 0 76 6 20 11 26 6 95 -78 25 -30 47 -57 50 -60 3 -3 55 -63
115 -135 60 -71 114 -135 120 -141 5 -6 31 -35 56 -65 184 -217 231 -269 248
-278 15 -9 33 2 102 60 46 39 100 85 119 103 19 17 78 67 130 111 83 70 135
115 174 150 6 6 61 53 121 105 61 52 128 111 149 131 l39 37 -19 30 c-10 16
-35 49 -56 73 -20 24 -64 78 -98 119 -34 41 -81 98 -105 125 -23 28 -92 111
-154 185 -62 74 -122 146 -134 160 -13 14 -67 79 -122 145 -54 66 -101 122
-104 125 -3 3 -28 31 -55 63 -48 57 -49 59 -37 96 46 155 -63 292 -206 261z
m104 -128 c52 -63 1 -157 -82 -150 -31 3 -85 59 -85 89 0 35 30 80 63 94 38
16 73 5 104 -33z m-546 -939 c48 -29 60 -81 27 -129 -36 -52 -91 -59 -138 -16
-85 75 13 203 111 145z"/>
<path d="M2378 5737 c-45 -11 -110 -65 -132 -111 -59 -124 63 -280 200 -255
24 5 50 6 56 3 7 -3 47 -46 88 -96 41 -50 106 -127 144 -172 121 -144 129
-154 125 -162 -3 -8 -82 -78 -205 -180 -135 -114 -345 -292 -398 -338 -32 -28
-67 -57 -78 -64 -21 -15 -18 -17 -88 68 -25 30 -49 60 -55 66 -5 6 -32 37 -60
69 -27 32 -55 63 -61 69 -8 8 -7 19 3 43 43 104 5 209 -92 254 -132 61 -282
-53 -259 -197 17 -112 129 -180 245 -149 23 6 33 -1 80 -56 30 -34 59 -67 64
-73 6 -6 50 -57 98 -113 48 -57 93 -103 99 -103 5 0 24 10 41 22 30 20 316
255 327 268 3 3 48 41 100 85 52 44 97 82 100 85 3 3 34 30 70 60 132 111 190
168 190 184 0 13 -32 54 -219 281 -90 110 -168 205 -172 211 -5 5 -2 30 5 55
7 24 12 55 11 69 -5 113 -121 203 -227 177z m101 -113 c26 -21 31 -33 31 -68
0 -53 -31 -85 -88 -93 -34 -5 -45 -1 -66 20 -14 14 -27 35 -27 47 -1 11 -2 26
-3 33 -4 22 28 66 54 76 42 16 67 12 99 -15z m-678 -784 c54 -29 53 -127 -2
-156 -61 -31 -119 -10 -139 51 -14 43 -7 67 30 99 31 26 69 28 111 6z"/>
<path d="M1210 5566 c-38 -17 -63 -38 -88 -73 -18 -25 -22 -45 -22 -105 0 -67
3 -77 30 -110 16 -20 50 -46 75 -58 36 -17 45 -27 46 -48 0 -15 2 -35 4 -45 2
-9 6 -50 10 -90 3 -39 8 -92 10 -117 10 -103 15 -149 20 -215 5 -71 13 -164
21 -245 2 -25 6 -79 9 -120 3 -41 7 -91 10 -110 6 -48 14 -123 20 -195 3 -33
7 -76 10 -95 2 -19 7 -67 11 -107 5 -65 4 -72 -14 -77 -30 -10 -73 -56 -93
-101 -39 -85 -1 -193 82 -236 34 -17 97 -27 119 -19 3 1 13 3 23 5 33 6 85 49
105 85 25 44 33 101 20 146 -12 47 -71 110 -114 124 -19 6 -34 17 -35 23 0 7
-2 21 -3 32 -2 11 -6 58 -10 105 -4 47 -10 102 -12 124 -2 21 -6 70 -9 110 -3
39 -8 87 -10 106 -2 19 -7 76 -10 125 -4 50 -9 104 -11 120 -2 17 -6 72 -10
123 -3 51 -7 102 -9 112 -2 11 -7 63 -10 117 -4 53 -8 105 -10 115 -2 10 -7
65 -11 124 l-7 106 54 54 54 55 0 73 c0 62 -4 78 -27 114 -16 23 -43 49 -60
58 -39 21 -123 26 -158 10z m105 -90 c60 -26 76 -102 30 -149 -33 -32 -67 -38
-108 -18 -78 39 -66 154 18 174 11 3 21 5 23 6 1 0 18 -5 37 -13z m171 -1812
c33 -16 51 -49 46 -84 -8 -48 -15 -61 -42 -75 -46 -24 -82 -19 -115 15 -42 44
-40 94 5 132 39 32 58 34 106 12z"/>
<path d="M6227 4894 c-154 -53 -174 -257 -33 -339 45 -26 89 -33 142 -21 29 6
35 3 75 -46 24 -29 51 -60 59 -68 9 -8 47 -53 85 -100 64 -78 104 -125 130
-154 6 -6 44 -51 85 -101 41 -49 77 -92 80 -95 3 -3 30 -34 60 -70 30 -35 65
-76 76 -90 12 -14 98 -115 190 -225 93 -110 190 -225 216 -255 76 -89 403
-476 502 -594 50 -60 90 -112 89 -116 -1 -4 -5 -52 -9 -106 -4 -54 -8 -106
-10 -114 -1 -8 -3 -30 -3 -48 -1 -28 -6 -35 -38 -48 -93 -39 -146 -144 -118
-234 29 -95 155 -157 247 -121 137 53 156 255 32 332 l-36 22 6 61 c3 33 8 90
11 126 3 36 8 90 11 121 5 54 3 59 -28 95 -18 22 -35 41 -38 44 -3 3 -52 61
-110 130 -57 69 -109 130 -115 136 -5 6 -23 28 -40 49 -16 21 -37 45 -46 54
-8 9 -74 86 -145 171 -71 85 -133 160 -139 166 -17 18 -97 112 -250 294 -172
204 -188 223 -229 270 -17 20 -49 57 -71 84 -22 27 -45 54 -50 60 -22 23 -332
393 -353 420 -20 27 -21 30 -6 59 24 45 19 111 -11 162 -48 83 -134 118 -218
89z m125 -112 c10 -10 21 -34 24 -54 5 -29 1 -41 -26 -71 -42 -48 -88 -51
-131 -8 -65 65 -11 170 80 157 19 -3 43 -14 53 -24z m1670 -2573 c27 -11 58
-62 58 -96 -1 -22 -28 -56 -57 -72 -34 -18 -69 -13 -102 15 -81 68 1 193 101
153z"/>
<path d="M9704 4840 c-104 -23 -165 -127 -140 -236 6 -28 3 -35 -40 -70 -26
-21 -52 -44 -58 -49 -6 -6 -32 -28 -58 -49 l-48 -38 -39 15 c-42 17 -118 15
-155 -5 -37 -19 -84 -74 -94 -110 -37 -136 63 -257 200 -242 53 6 100 37 136
88 23 34 27 49 27 112 0 71 1 74 35 105 19 17 61 56 93 86 l58 54 46 -15 c62
-21 106 -20 151 3 76 39 112 97 112 180 0 39 -6 56 -34 92 -54 69 -118 95
-192 79z m92 -105 c28 -19 48 -69 40 -100 -3 -13 -19 -36 -34 -50 -34 -33 -82
-28 -124 11 -37 36 -38 81 -2 123 20 24 34 31 63 31 20 0 46 -7 57 -15z m-495
-416 c9 -5 24 -24 33 -43 14 -31 15 -39 3 -68 -24 -58 -76 -79 -127 -53 -70
36 -73 122 -7 164 31 20 59 20 98 0z"/>
<path d="M2836 4509 c-69 -19 -128 -85 -139 -157 -11 -69 34 -156 96 -189 35
-18 118 -26 150 -14 18 7 33 -6 96 -83 42 -50 81 -95 87 -101 12 -12 229 -272
324 -390 36 -44 68 -81 71 -83 4 -2 -1 -24 -11 -50 -10 -26 -16 -56 -14 -67
10 -66 17 -84 45 -118 72 -88 178 -98 261 -25 87 76 90 192 8 275 -39 40 -97
57 -164 49 l-51 -6 -65 81 c-36 44 -74 90 -86 102 -11 12 -63 74 -115 137 -51
63 -96 117 -99 120 -7 7 -88 104 -143 172 -46 57 -46 58 -32 93 20 46 18 91
-5 143 -41 89 -127 135 -214 111z m109 -111 c53 -46 28 -150 -40 -163 -84 -17
-143 62 -102 137 11 20 27 39 36 41 42 12 81 6 106 -15z m788 -944 c39 -12 58
-99 28 -133 -27 -31 -69 -50 -96 -42 -90 24 -103 133 -21 178 19 10 48 9 89
-3z"/>
<path d="M9615 4416 c-120 -54 -157 -188 -79 -292 40 -55 139 -85 203 -62 18
6 27 4 40 -11 9 -11 25 -30 36 -43 120 -140 135 -161 136 -191 1 -36 4 -74 13
-167 l6 -65 -94 -77 c-105 -88 -117 -94 -144 -79 -36 19 -109 23 -144 7 -95
-41 -130 -111 -119 -233 1 -6 13 -25 27 -42 14 -17 22 -31 17 -32 -83 -7 -135
-36 -177 -103 -20 -32 -27 -108 -14 -146 8 -21 5 -29 -19 -48 -15 -13 -41 -36
-58 -51 -59 -53 -113 -91 -129 -91 -8 0 -35 6 -58 14 -24 8 -74 23 -113 35
-135 39 -460 139 -475 146 -8 3 -34 30 -58 58 -62 76 -90 109 -112 133 -19 21
-19 24 -4 60 51 121 -33 253 -166 259 -135 8 -240 -157 -171 -268 53 -86 125
-117 219 -96 32 7 35 5 132 -110 l99 -117 308 -93 c309 -93 406 -121 423 -121
5 0 64 45 130 100 113 92 124 98 143 86 36 -22 111 -29 149 -13 70 29 117 91
125 166 4 42 1 58 -21 96 l-27 45 23 1 c13 1 26 1 30 0 3 0 28 14 54 32 69 46
89 86 87 172 0 39 3 72 7 75 13 8 142 123 181 161 37 36 37 38 34 100 -16 264
-18 286 -35 299 -3 3 -42 50 -86 105 -43 55 -82 103 -87 106 -4 3 -1 23 6 45
8 21 13 60 12 86 -3 119 -144 212 -250 164z m122 -97 c53 -28 48 -129 -6 -159
-35 -18 -86 -12 -115 15 -59 55 -13 169 65 160 19 -3 44 -10 56 -16z m-15
-1001 c25 -27 29 -38 24 -67 -11 -67 -72 -101 -133 -76 -31 13 -61 57 -57 83
1 6 2 18 3 26 0 7 13 25 27 40 40 39 96 37 136 -6z m-1561 -22 c36 -10 63 -59
55 -100 -15 -80 -105 -107 -158 -48 -17 20 -28 44 -28 61 0 32 33 79 64 91 22
8 25 8 67 -4z m1374 -270 c72 -30 82 -130 17 -165 -45 -24 -73 -21 -107 12
-19 18 -36 44 -39 58 -6 38 45 98 92 108 1 1 18 -5 37 -13z"/>
<path d="M5660 4409 c-46 -19 -92 -62 -111 -103 -20 -45 -25 -107 -9 -136 8
-15 0 -26 -48 -66 -31 -27 -59 -51 -62 -54 -3 -3 -45 -39 -95 -80 -111 -92
-135 -112 -149 -125 -6 -6 -128 -109 -271 -230 -143 -120 -316 -267 -384 -325
-68 -58 -139 -118 -157 -133 -33 -28 -34 -28 -83 -13 -85 25 -148 10 -206 -50
-107 -110 -36 -293 120 -309 57 -6 98 10 147 58 48 46 65 102 51 168 l-10 50
136 112 c75 61 138 114 141 117 3 3 43 37 90 75 47 38 96 80 110 92 14 12 75
63 135 113 61 50 121 101 135 113 14 13 48 41 75 62 28 22 57 47 65 55 8 8 51
44 95 80 44 35 82 67 85 70 3 3 32 28 65 55 33 28 63 54 67 60 4 6 20 5 42 -3
85 -31 176 -12 226 46 28 31 48 95 44 140 -4 46 -47 116 -87 141 -39 24 -122
35 -157 20z m123 -119 c48 -53 28 -130 -38 -149 -42 -11 -81 5 -105 44 -32 52
-14 106 45 131 40 17 65 10 98 -26z m-1512 -1243 c37 -25 54 -75 37 -111 -11
-26 -61 -62 -83 -60 -8 1 -21 2 -28 3 -18 1 -51 31 -65 57 -13 25 0 85 23 104
11 10 54 26 76 29 3 1 21 -9 40 -22z"/>
<path d="M1740 4172 c-98 -47 -136 -177 -79 -269 70 -113 235 -117 312 -6 17
24 38 43 46 44 22 1 164 0 372 -2 l176 -2 52 -59 c28 -33 51 -63 51 -66 0 -4
-7 -25 -14 -47 -47 -135 75 -275 217 -248 28 6 111 72 127 104 18 32 19 112 4
149 -35 82 -115 127 -206 116 l-53 -7 -62 73 -62 73 -63 1 c-35 1 -172 3 -305
5 l-243 3 -15 33 c-34 71 -96 113 -175 117 -29 2 -62 -3 -80 -12z m137 -98
c27 -17 43 -70 31 -105 -7 -21 -73 -71 -93 -70 -24 2 -69 38 -81 66 -17 42 -6
80 33 112 29 24 69 23 110 -3z m1020 -307 c71 -72 -14 -194 -105 -150 -31 15
-63 66 -59 94 4 26 37 70 60 79 32 14 79 3 104 -23z"/>
<path d="M8860 4148 c-86 -32 -136 -114 -126 -208 l6 -58 -87 -73 c-177 -149
-313 -270 -313 -280 0 -13 17 -45 35 -67 8 -9 48 -59 89 -110 l75 -92 -16 -37
c-34 -82 -1 -182 75 -232 121 -80 285 13 284 160 -1 103 -79 178 -187 181 -23
0 -51 -2 -62 -6 -16 -5 -35 12 -103 90 l-83 96 34 29 c19 17 66 56 104 87 39
31 72 59 75 62 23 24 143 120 151 120 6 0 19 -4 29 -10 67 -36 179 -6 225 60
34 49 43 84 35 136 -8 49 -68 130 -109 146 -36 14 -101 17 -131 6z m99 -93
c23 -7 51 -57 51 -93 0 -32 -41 -81 -69 -83 -72 -7 -116 28 -116 90 0 74 57
111 134 86z m-198 -844 c80 -81 -21 -200 -119 -141 -34 21 -52 84 -33 119 31
57 105 68 152 22z"/>
<path d="M6184 4110 c-22 -17 -46 -36 -54 -43 -8 -7 -49 -39 -90 -72 -41 -33
-82 -67 -90 -75 -8 -8 -36 -32 -62 -53 -26 -21 -53 -43 -60 -50 -7 -7 -53 -46
-103 -87 -49 -41 -92 -77 -95 -80 -3 -3 -32 -27 -65 -55 -33 -27 -62 -52 -65
-55 -6 -6 -176 -148 -201 -168 -13 -10 -23 -9 -50 2 -53 22 -130 14 -178 -17
-75 -49 -106 -160 -67 -235 32 -62 126 -118 181 -107 11 2 27 4 36 4 24 1 91
58 117 99 20 32 23 46 18 104 l-5 66 107 89 c59 48 114 95 123 103 8 8 66 58
129 110 62 52 148 124 190 160 79 68 169 144 200 170 10 8 42 35 71 60 29 25
56 45 59 45 8 0 51 -50 411 -487 390 -473 371 -449 364 -473 -16 -53 -17 -132
-2 -161 19 -37 55 -76 87 -95 54 -33 161 -18 214 29 47 42 70 145 45 209 -30
80 -152 139 -228 111 -26 -10 -14 -21 -191 187 -56 66 -112 131 -124 145 -12
14 -68 81 -126 150 -58 69 -107 127 -110 130 -3 3 -30 34 -60 70 -30 35 -60
70 -67 78 -7 7 -29 33 -50 59 -21 26 -49 58 -62 72 -13 14 -35 41 -48 59 -31
40 -50 40 -99 2z m-941 -850 c32 -36 34 -63 7 -107 -51 -85 -183 -36 -167 62
14 83 103 108 160 45z m1998 -219 c37 -37 39 -84 5 -126 -21 -26 -31 -30 -71
-30 -40 0 -50 4 -71 30 -75 94 52 211 137 126z"/>
<path d="M2183 3671 c-58 -15 -114 -71 -131 -134 -25 -91 30 -192 123 -224 27
-9 103 -10 131 -1 11 3 38 -27 189 -207 27 -33 54 -65 60 -71 5 -6 28 -32 50
-59 22 -27 56 -67 75 -90 19 -23 54 -63 77 -91 23 -27 53 -62 67 -79 21 -24
23 -32 13 -40 -12 -9 -37 -30 -139 -117 -10 -9 -48 -40 -83 -70 -87 -71 -86
-80 14 -199 43 -52 171 -204 284 -339 200 -238 205 -246 190 -268 -19 -31 -19
-132 1 -169 33 -64 96 -103 166 -103 51 0 80 12 124 51 101 88 79 241 -44 302
-46 23 -66 25 -135 13 -26 -5 -34 0 -62 37 -18 23 -43 53 -55 67 -26 27 -244
287 -323 384 -27 34 -62 75 -77 91 -15 17 -28 35 -28 40 0 6 37 42 82 80 174
149 212 189 205 216 -3 13 -86 119 -183 234 -187 222 -351 419 -372 446 -10
13 -9 23 2 50 45 109 -33 241 -150 253 -21 3 -53 1 -71 -3z m115 -115 c14 -14
25 -38 27 -60 8 -80 -93 -130 -154 -77 -52 45 -40 124 22 155 38 19 74 13 105
-18z m1023 -1879 c63 -48 60 -130 -6 -161 -41 -20 -49 -20 -85 -1 -62 32 -70
103 -18 148 35 29 81 35 109 14z"/>
<path d="M6165 3494 c-21 -7 -55 -29 -75 -49 -51 -49 -66 -110 -46 -185 6 -22
-3 -33 -76 -95 -134 -114 -125 -109 -156 -96 -78 32 -175 11 -227 -51 -29 -34
-48 -96 -41 -135 2 -16 5 -35 5 -43 2 -25 63 -88 106 -109 142 -68 304 83 250
236 -4 11 16 31 120 118 97 82 90 78 122 62 43 -21 119 -22 150 -1 107 70 141
168 90 259 -45 80 -139 118 -222 89z m125 -110 c40 -41 24 -138 -24 -150 -44
-11 -61 -11 -81 -2 -60 30 -73 103 -27 151 24 25 32 28 71 24 24 -3 51 -13 61
-23z m-512 -406 c65 -34 60 -127 -9 -160 -65 -32 -134 13 -133 84 1 35 7 47
34 69 34 29 62 30 108 7z"/>
<path d="M3095 3432 c-77 -36 -124 -121 -110 -202 7 -43 62 -113 106 -135 32
-17 88 -21 135 -11 28 6 34 2 70 -40 34 -41 137 -163 198 -234 122 -145 377
-446 409 -484 125 -148 160 -186 175 -186 10 0 32 13 51 28 97 79 287 236 291
241 3 4 57 49 120 101 63 52 124 103 135 113 11 10 36 32 56 48 l37 29 105
-123 105 -122 -14 -35 c-31 -82 -19 -140 45 -208 62 -66 153 -76 226 -24 98
70 112 204 31 285 -48 48 -83 60 -155 54 l-66 -6 -43 54 c-52 65 -101 121
-163 188 -53 58 -69 58 -133 5 -22 -18 -98 -82 -170 -143 -72 -60 -137 -114
-144 -120 -7 -5 -21 -17 -30 -26 -9 -9 -74 -64 -145 -123 l-128 -107 -57 68
c-31 38 -62 74 -69 81 -7 7 -29 34 -50 59 -21 26 -45 54 -53 63 -16 18 -23 25
-145 170 -44 52 -82 97 -85 100 -3 3 -28 32 -55 65 -28 33 -54 65 -60 71 -5 6
-30 35 -55 64 -25 30 -64 76 -87 104 -24 27 -43 52 -43 55 0 3 7 24 14 46 29
82 -1 177 -70 224 -48 33 -125 38 -179 13z m141 -106 c30 -30 34 -39 29 -68
-7 -37 -28 -64 -65 -83 -21 -11 -31 -11 -55 0 -76 32 -93 106 -37 156 45 40
84 39 128 -5z m1951 -905 c27 -14 47 -64 39 -97 -16 -61 -80 -90 -139 -63 -46
21 -62 96 -29 135 36 43 80 52 129 25z"/>
<path d="M1669 3337 c-81 -41 -122 -135 -97 -224 11 -42 80 -110 121 -121 29
-8 84 -7 129 0 24 4 194 -200 203 -244 3 -18 31 -145 62 -283 30 -137 57 -259
59 -270 8 -41 13 -63 43 -194 l31 -133 97 -117 c54 -64 100 -118 103 -121 3
-3 37 -43 75 -90 38 -47 72 -87 75 -90 57 -57 61 -65 45 -98 -64 -126 43 -277
188 -266 39 3 58 11 97 44 52 44 65 71 68 140 5 116 -122 213 -237 180 -30 -8
-33 -6 -117 93 -48 56 -106 125 -129 152 -184 216 -183 214 -194 273 -5 31
-12 66 -15 77 -3 11 -16 72 -30 135 -23 108 -65 300 -118 538 -23 103 -24 105
-96 190 -40 48 -84 103 -98 123 -23 33 -24 38 -10 70 34 82 -9 194 -92 238
-44 23 -115 22 -163 -2z m150 -102 c45 -44 24 -132 -36 -152 -63 -22 -126 25
-126 94 0 38 17 61 58 78 38 17 74 10 104 -20z m996 -1879 c33 -14 65 -59 65
-91 0 -26 -37 -71 -69 -84 -24 -10 -34 -10 -59 3 -62 32 -79 91 -41 140 18 22
44 40 67 45 1 1 18 -5 37 -13z"/>
<path d="M6492 2900 c-43 -10 -94 -46 -122 -88 -36 -51 -33 -134 6 -192 16
-24 43 -52 61 -62 40 -24 114 -33 152 -20 29 10 31 8 105 -81 42 -50 76 -94
75 -97 0 -3 -59 -54 -131 -115 -209 -175 -291 -245 -318 -269 -14 -12 -81 -68
-150 -125 -69 -57 -129 -109 -135 -115 -5 -6 -62 -54 -125 -106 -63 -52 -122
-102 -131 -110 -17 -16 -33 -29 -119 -100 -30 -25 -62 -52 -70 -61 -8 -8 -44
-39 -79 -67 l-64 -51 -21 27 c-17 23 -144 174 -220 262 -11 14 -73 86 -135
160 -63 74 -118 137 -121 140 -5 5 -154 179 -195 229 -11 13 -41 47 -66 75
l-47 50 -83 -68 c-46 -38 -106 -88 -134 -111 -80 -68 -218 -186 -240 -204 -40
-33 -341 -287 -365 -308 -22 -18 -160 -135 -299 -251 -23 -21 -48 -42 -55 -47
-6 -6 -68 -59 -138 -118 -73 -61 -128 -115 -128 -125 0 -9 43 -69 95 -132 52
-63 95 -120 95 -126 0 -6 -6 -27 -14 -45 -18 -45 -11 -116 17 -157 12 -18 41
-45 64 -61 36 -24 51 -28 103 -26 51 2 67 7 98 32 52 42 75 87 77 147 4 123
-110 213 -233 185 -30 -7 -37 -4 -68 29 -54 57 -116 140 -112 151 1 5 152 134
333 288 342 288 357 302 435 368 26 22 58 49 71 60 121 101 285 239 289 244 3
3 44 39 92 79 l87 72 97 -112 c53 -62 106 -124 118 -138 12 -14 73 -86 136
-160 62 -74 116 -137 120 -140 3 -3 30 -34 60 -70 30 -36 60 -69 66 -75 5 -5
41 -46 80 -90 72 -84 132 -145 141 -145 5 0 126 93 149 115 6 5 32 28 58 50
27 22 56 47 66 55 10 8 38 31 61 52 24 20 125 105 224 188 99 84 202 171 229
194 27 22 54 46 60 51 6 6 74 64 151 128 77 65 151 128 165 141 14 12 77 67
140 121 146 125 145 124 113 163 -10 11 -25 29 -33 39 -8 10 -43 53 -78 96
l-63 76 14 48 c21 69 13 129 -21 178 -44 61 -117 90 -190 75z m94 -104 c58
-59 51 -126 -17 -161 -83 -43 -173 69 -111 139 36 40 99 51 128 22z m-2985
-2126 c25 -14 46 -58 44 -93 -2 -33 -26 -61 -66 -78 -60 -24 -134 39 -122 104
11 57 91 95 144 67z"/>
<path d="M7575 2696 c-73 -33 -111 -110 -102 -207 5 -56 4 -59 -26 -83 -18
-13 -41 -32 -52 -43 -11 -10 -89 -76 -172 -146 -84 -71 -153 -132 -153 -135 0
-16 130 -189 188 -250 15 -16 15 -17 -2 -72 -13 -44 -13 -53 -1 -116 6 -33 53
-87 96 -109 61 -32 157 -19 207 28 40 37 60 87 58 142 -3 67 -28 114 -79 150
-37 27 -49 30 -119 30 l-77 0 -79 94 -80 94 126 101 c69 56 137 110 151 121
14 11 39 32 55 46 28 26 30 26 65 12 124 -52 268 48 260 181 -6 99 -81 171
-181 174 -29 1 -66 -4 -83 -12z m110 -87 c35 -10 65 -54 65 -94 0 -37 -52 -85
-92 -85 -63 0 -120 74 -96 125 13 27 55 61 76 62 9 1 31 -3 47 -8z m-183 -849
c21 -22 26 -37 23 -65 -10 -106 -165 -117 -182 -12 -16 99 91 151 159 77z"/>
<path d="M3174 2600 c-46 -21 -98 -73 -113 -113 -31 -80 12 -182 94 -225 35
-18 122 -24 147 -11 13 7 23 4 37 -13 11 -13 30 -34 41 -48 12 -14 41 -47 64
-74 22 -27 46 -54 51 -60 63 -70 66 -76 48 -109 -23 -44 -19 -118 8 -167 33
-58 89 -93 158 -98 52 -4 60 -1 100 29 63 49 81 78 86 138 6 63 -10 106 -58
153 -39 39 -108 59 -166 47 -19 -4 -39 -5 -45 -2 -11 4 -204 233 -219 260 -5
8 -3 32 5 56 17 51 15 104 -5 144 -25 47 -76 91 -115 98 -67 14 -79 13 -118
-5z m140 -115 c42 -65 -5 -158 -75 -150 -51 7 -77 25 -90 62 -32 99 109 174
165 88z m456 -545 c53 -38 51 -110 -4 -148 -55 -38 -109 -23 -141 38 -18 36
-6 75 33 107 34 28 76 29 112 3z"/>
<path d="M8670 2563 c-31 -12 -91 -66 -107 -97 -22 -41 -21 -128 1 -162 54
-81 112 -110 204 -101 l57 5 70 -85 c39 -46 75 -92 82 -101 10 -14 6 -38 -18
-127 -17 -60 -32 -117 -34 -125 -16 -69 -108 -397 -113 -406 -4 -7 -41 -40
-82 -74 -41 -34 -86 -72 -100 -84 -14 -11 -65 -55 -115 -96 -49 -41 -92 -77
-95 -80 -3 -4 -33 -29 -68 -58 -62 -51 -64 -52 -92 -37 -79 41 -198 3 -238
-76 -29 -57 -32 -138 -6 -177 69 -105 180 -134 265 -70 72 56 84 79 84 165 l1
75 41 36 c23 20 83 73 135 117 51 44 95 82 98 85 3 3 62 54 132 114 130 112
130 111 153 211 9 35 109 408 120 445 8 25 20 73 26 107 15 72 17 67 -103 210
l-80 95 17 39 c37 82 -1 191 -84 237 -38 21 -114 29 -151 15z m127 -113 c24
-22 31 -37 29 -57 -2 -16 -4 -36 -5 -46 -1 -22 -58 -57 -92 -57 -31 0 -88 49
-90 77 -3 42 3 59 29 83 40 38 89 38 129 0z m-566 -1607 c30 -18 38 -31 46
-76 3 -22 -3 -35 -30 -62 -45 -45 -82 -46 -126 -5 -42 41 -43 90 -2 131 34 33
69 37 112 12z"/>
<path d="M5945 2464 c-41 -22 -74 -54 -90 -85 -18 -34 -27 -113 -15 -143 8
-22 3 -30 -58 -84 -37 -32 -84 -71 -105 -87 -37 -27 -39 -28 -90 -15 -87 20
-140 6 -202 -56 -36 -35 -46 -68 -44 -131 3 -61 23 -100 72 -137 92 -70 225
-39 278 66 21 42 25 78 15 134 -6 30 0 37 93 118 100 87 117 96 139 74 6 -6
40 -12 75 -12 56 0 69 3 103 29 90 67 113 152 67 241 -43 84 -164 128 -238 88z
m108 -87 c44 -19 59 -40 59 -83 0 -46 -46 -96 -87 -96 -58 0 -106 52 -98 107
5 37 20 54 58 71 37 16 30 16 68 1z m-467 -441 c44 -44 45 -83 3 -125 -22 -22
-40 -31 -64 -31 -44 0 -95 49 -95 92 0 39 57 98 95 98 17 0 39 -12 61 -34z"/>
<path d="M8327 1969 c-97 -27 -162 -140 -136 -233 9 -32 15 -25 -91 -114 -41
-35 -86 -74 -100 -86 -14 -12 -52 -44 -85 -71 -33 -27 -80 -67 -105 -88 -81
-71 -94 -82 -155 -132 -33 -28 -62 -53 -65 -56 -3 -3 -68 -59 -145 -124 -77
-65 -147 -125 -156 -134 -8 -9 -28 -27 -45 -41 -41 -35 -64 -70 -56 -88 5 -15
30 -47 60 -78 10 -11 10 -20 -3 -50 -48 -117 26 -248 149 -261 147 -17 254
134 187 264 -30 59 -110 114 -155 107 -63 -9 -86 -7 -105 10 -12 11 -21 22
-21 25 0 4 41 40 91 81 50 41 102 85 115 97 13 12 63 54 111 95 48 40 90 75
93 78 3 3 32 28 65 55 33 28 71 60 85 72 164 140 376 315 391 323 13 8 27 7
46 -3 40 -20 134 -14 175 11 64 40 99 135 78 213 -25 92 -133 154 -223 128z
m94 -99 c64 -35 55 -146 -14 -170 -47 -16 -66 -12 -98 19 -59 60 -23 161 58
161 19 0 43 -5 54 -10z m-940 -1209 c79 -80 -19 -201 -115 -141 -80 49 -43
170 51 170 25 0 43 -8 64 -29z"/>
<path d="M6674 1830 c-91 -43 -131 -169 -82 -255 44 -75 133 -115 212 -93 19
5 35 3 44 -5 17 -14 92 -113 92 -122 0 -3 -37 -3 -82 0 -46 2 -145 7 -222 10
-76 3 -141 6 -145 7 -21 2 -40 -4 -57 -20 -10 -10 -128 -109 -261 -220 -133
-111 -245 -207 -248 -212 -4 -6 -18 -4 -38 6 -17 9 -56 17 -87 17 -100 1 -179
-72 -185 -171 -10 -154 159 -253 287 -169 64 42 98 147 74 224 -5 16 13 36
101 109 59 49 121 101 138 116 16 15 84 72 150 128 l120 100 85 -4 c170 -10
406 -19 464 -18 61 0 77 10 71 43 -4 17 -105 148 -167 215 l-29 31 16 39 c26
60 20 121 -17 176 -56 82 -149 109 -234 68z m117 -81 c30 -12 59 -57 59 -92 0
-31 -49 -83 -84 -89 -29 -6 -80 21 -95 51 -25 45 -8 101 35 124 32 17 52 18
85 6z m-928 -924 c58 -59 28 -144 -57 -159 -58 -10 -101 34 -99 102 2 75 101
111 156 57z"/>
<path d="M4440 1491 c-54 -29 -92 -75 -105 -127 -16 -64 -3 -111 45 -164 53
-59 110 -75 195 -56 26 6 34 -1 125 -104 41 -47 77 -87 80 -90 3 -3 30 -34 60
-69 30 -36 72 -83 92 -105 43 -47 43 -45 25 -89 -38 -94 20 -215 120 -248 79
-26 183 22 224 102 69 136 -65 293 -220 258 -28 -6 -38 -4 -50 10 -15 17 -145
162 -166 185 -5 6 -39 45 -75 86 -36 41 -67 77 -70 80 -46 46 -49 55 -35 83 8
16 13 51 11 90 -2 54 -7 70 -30 98 -62 74 -154 99 -226 60z m115 -86 c90 -43
59 -176 -42 -175 -79 1 -116 77 -72 148 25 41 64 50 114 27z m625 -705 c24
-13 47 -57 44 -87 -2 -32 -31 -72 -58 -83 -47 -18 -111 15 -124 64 -23 83 61
147 138 106z"/>
<path d="M4165 656 c-67 -24 -108 -68 -121 -129 -8 -36 -6 -91 5 -117 13 -35
65 -88 98 -102 35 -14 122 -18 144 -7 13 6 31 -9 82 -69 35 -42 79 -93 96
-112 17 -19 31 -39 31 -43 0 -7 173 -5 550 8 100 3 338 10 675 20 158 4 535
16 586 18 38 2 55 10 95 44 27 22 67 56 89 74 23 19 51 44 65 56 28 27 29 27
67 12 15 -7 50 -13 77 -14 40 -2 57 4 94 29 72 49 87 76 87 156 0 61 -3 72
-31 107 -71 90 -196 104 -272 30 -51 -49 -61 -78 -57 -160 3 -82 13 -68 -128
-184 -78 -64 -37 -57 -412 -67 -121 -4 -278 -8 -350 -11 -71 -3 -215 -7 -320
-10 -271 -7 -533 -15 -657 -20 l-107 -4 -68 82 c-37 45 -75 91 -85 102 -15 20
-15 24 2 74 13 41 15 62 8 94 -11 48 -69 124 -107 139 -39 14 -102 17 -136 4z
m130 -116 c9 -10 19 -34 22 -53 8 -62 -64 -119 -123 -97 -58 23 -79 82 -49
140 27 51 108 57 150 10z m2486 -14 c36 -58 -1 -132 -71 -141 -29 -3 -39 1
-71 35 -34 36 -37 43 -29 71 26 90 124 110 171 35z"/>
</g>
</svg>
